<svg xmlns="http://www.w3.org/2000/svg" viewBox="0 0 800 1000" width="100%" height="100%"><defs><radialGradient id="dark-bg" cx="50%" cy="50%" r="75%"><stop offset="0%" stop-color="#0a111e" /><stop offset="60%" stop-color="#050810" /><stop offset="100%" stop-color="#020306" /></radialGradient><linearGradient id="line-gold" x1="0%" y1="0%" x2="100%" y2="100%"><stop offset="0%" stop-color="#d4af37" /><stop offset="50%" stop-color="#aa7c11" /><stop offset="100%" stop-color="#f3e5ab" /></linearGradient><style>.fine-geo { stroke: #aa7c11; stroke-width: 0.5; fill: none; opacity: 0.25; }</style></defs><rect width="800" height="1000" fill="url(#dark-bg)" /><g transform="translate(400, 380)"><circle r="220" class="fine-geo" /><circle r="170" class="fine-geo" /><circle r="120" class="fine-geo" /><circle r="70" class="fine-geo" /><g class="fine-geo"><polygon points="0,-220 190.5,-110 190.5,110 0,220 -190.5,110 -190.5,-110" /><polygon points="0,-170 147.2,-85 147.2,85 0,170 -147.2,85 -147.2,-85" /><line x1="-220" y1="0" x2="220" y2="0" /><line x1="0" y1="-220" x2="0" y2="220" /></g><g stroke="url(#line-gold)" stroke-width="3" fill="none"><polygon points="0,-220 190.5,110 -190.5,110" /><polygon points="0,220 190.5,-110 -190.5,-110" /></g><polygon points="0,-240 207.8,-120 207.8,120 0,240 -207.8,120 -207.8,-120" fill="none" stroke="#ffffff" stroke-width="12" stroke-linejoin="round" /><g fill="none" stroke="#ffffff" stroke-width="18" stroke-linecap="square" stroke-linejoin="miter"><path d="M -90,-130 L -95,120 L 10,120" /><path d="M 15,-130 L 15,120 M 15,-130 L 52,-10 L 90,-130 L 90,120" /></g><g transform="translate(15, -10)" fill="url(#line-gold)"><polygon points="0,-12 3,-3 12,0 3,3 0,12 -3,3 -12,0 -3,-3" /><polygon points="0,-12 3,-3 12,0 3,3 0,12 -3,3 -12,0 -3,-3" transform="rotate(45)" /></g></g><g transform="translate(400, 750)"><line x1="-220" y1="-40" x2="220" y2="-40" stroke="#aa7c11" stroke-width="1.5" opacity="0.6" /><text font-family="'Courier New', Courier, monospace, sans-serif" font-size="32" font-weight="900" letter-spacing="14" fill="#ffffff" text-anchor="middle">RASTA IMPERIUM</text><polygon points="0,25 6,31 0,37 -6,31" fill="#aa7c11" /><text font-family="'Courier New', Courier, monospace, sans-serif" font-size="13" font-weight="bold" letter-spacing="5" fill="#aa7c11" text-anchor="middle" y="60" opacity="0.85">GOVERNANCE · INTELLIGENCE · SOVEREIGNTY</text><line x1="-220" y1="85" x2="220" y2="85" stroke="#aa7c11" stroke-width="1.5" opacity="0.6" /></g></svg>